<?xml version="1.0" standalone="no"?>
<!DOCTYPE svg PUBLIC "-//W3C//DTD SVG 20010904//EN"
 "http://www.w3.org/TR/2001/REC-SVG-20010904/DTD/svg10.dtd">
<svg version="1.0" xmlns="http://www.w3.org/2000/svg"
 width="713.000000pt" height="162.000000pt" viewBox="0 0 713.000000 162.000000"
 preserveAspectRatio="xMidYMid meet">

<g transform="translate(0.000000,162.000000) scale(0.100000,-0.100000)"
fill="#000000" stroke="none">
<path d="M0 810 l0 -810 3565 0 3565 0 0 810 0 810 -3565 0 -3565 0 0 -810z
m2012 563 l3 -98 108 -3 107 -3 0 -54 0 -54 -107 -3 -108 -3 0 -265 c0 -339 4
-350 139 -350 l66 0 0 -54 c0 -42 -4 -55 -17 -61 -37 -14 -140 -17 -183 -5
-56 15 -123 80 -140 135 -8 26 -14 137 -17 323 l-5 282 -59 0 -59 0 0 55 0 55
60 0 59 0 3 77 3 78 60 22 c33 12 65 22 72 22 9 1 13 -28 15 -96z m-1372 -590
l0 -677 -32 30 c-18 16 -66 60 -106 98 -64 58 -76 65 -90 54 -9 -7 -53 -44
-97 -83 -44 -39 -88 -76 -97 -84 -17 -13 -18 20 -18 663 l0 676 220 0 220 0 0
-677z m796 472 c63 -31 101 -77 136 -164 21 -53 23 -72 26 -368 l4 -313 -75 0
-75 0 -4 293 c-4 303 -8 328 -50 390 -72 102 -247 84 -325 -35 l-28 -41 -5
-301 -5 -301 -77 -3 -78 -3 0 431 0 430 64 0 64 0 7 -70 7 -70 29 40 c81 112
252 150 385 85z m1430 6 c126 -56 211 -214 202 -378 l-3 -58 -294 -3 -294 -2
6 -54 c10 -95 63 -171 147 -209 79 -36 220 -33 346 8 19 6 23 1 33 -39 6 -25
11 -49 11 -54 0 -16 -89 -42 -187 -54 -305 -39 -503 127 -503 422 0 217 112
387 289 437 65 18 187 10 247 -16z m792 -48 l3 -73 -48 0 c-91 -1 -157 -49
-200 -146 -14 -33 -18 -81 -21 -312 l-4 -273 -72 3 -71 3 -3 428 -2 427 65 0
65 0 1 -62 c0 -35 4 -72 8 -82 6 -17 9 -15 21 14 34 83 136 153 215 148 l40
-3 3 -72z m687 43 c64 -32 107 -80 138 -156 20 -52 22 -72 25 -372 l3 -318
-75 0 -74 0 -4 298 c-3 278 -4 300 -24 343 -30 64 -82 101 -149 107 -68 6
-114 -10 -159 -54 -71 -69 -70 -67 -76 -394 l-5 -295 -72 -3 -73 -3 0 258 c0
142 -3 336 -7 431 l-6 172 65 0 65 0 7 -37 c3 -21 6 -53 6 -72 l0 -35 28 37
c89 119 253 158 387 93z m847 23 c103 -22 179 -73 234 -156 53 -80 74 -156 74
-268 0 -243 -125 -398 -351 -437 -173 -30 -339 54 -419 211 -61 121 -63 308
-4 428 31 65 103 146 158 178 81 48 206 65 308 44z m1003 -17 c47 -24 86 -63
110 -112 l18 -35 16 25 c36 55 75 91 129 117 47 23 70 28 132 28 125 0 204
-55 253 -175 20 -52 22 -72 25 -378 l3 -323 -73 3 -73 3 -5 305 c-5 291 -6
307 -27 347 -31 57 -74 86 -139 91 -44 4 -61 0 -99 -22 -25 -15 -58 -46 -73
-68 l-27 -41 -5 -306 -5 -306 -72 -3 -73 -3 0 273 c0 291 -8 359 -50 418 -60
84 -205 77 -274 -13 -52 -68 -56 -97 -56 -398 l0 -279 -75 0 -75 0 0 399 c0
219 -3 413 -6 430 l-6 31 71 0 71 0 0 -65 c0 -36 3 -65 8 -65 4 0 18 16 31 36
69 101 236 143 346 86z"/>
<path d="M2625 1161 c-56 -25 -102 -76 -125 -138 -37 -100 -52 -93 200 -93
l220 0 0 34 c0 80 -58 172 -127 202 -45 19 -120 17 -168 -5z"/>
<path d="M5045 1171 c-77 -20 -140 -75 -177 -156 -20 -43 -23 -66 -23 -165 0
-96 4 -123 21 -161 49 -104 125 -158 227 -159 72 0 121 23 173 83 56 63 79
133 79 237 0 138 -49 242 -137 294 -48 27 -117 39 -163 27z"/>
</g>
</svg>
