<?xml version="1.0" standalone="no"?>
<!DOCTYPE svg PUBLIC "-//W3C//DTD SVG 20010904//EN"
 "http://www.w3.org/TR/2001/REC-SVG-20010904/DTD/svg10.dtd">
<svg version="1.0" xmlns="http://www.w3.org/2000/svg"
 width="758.000000pt" height="170.000000pt" viewBox="0 0 758.000000 170.000000"
 preserveAspectRatio="xMidYMid meet">

<g transform="translate(0.000000,170.000000) scale(0.100000,-0.100000)"
fill="#000000" stroke="none">
<path d="M1960 1651 l-65 -17 -3 -109 -3 -110 -69 3 -70 4 0 -66 0 -66 69 0
69 0 4 -302 c5 -343 10 -370 78 -432 42 -37 120 -66 180 -66 39 0 140 17 148
24 2 3 1 31 -3 63 l-6 58 -73 -3 c-66 -3 -76 -1 -103 22 -47 39 -53 84 -53
375 l0 261 125 0 126 0 -3 63 -3 62 -120 2 -120 1 -3 126 c-3 144 5 135 -102
107z"/>
<path d="M4460 1425 c-72 -21 -131 -56 -173 -105 -18 -22 -37 -40 -40 -40 -4
0 -7 32 -7 70 l0 70 -77 0 -78 0 3 -449 2 -450 85 -3 85 -3 0 281 c0 334 5
363 79 435 57 55 116 74 197 66 74 -8 125 -42 155 -104 23 -47 24 -55 27 -360
l3 -312 85 -3 84 -3 0 317 c0 283 -2 323 -19 377 -19 60 -54 117 -96 154 -70
63 -211 91 -315 62z"/>
<path d="M5455 1425 c-87 -19 -150 -51 -215 -111 -191 -178 -188 -532 7 -704
173 -152 462 -144 634 17 155 145 182 431 60 620 -61 95 -149 153 -270 179
-80 17 -137 17 -216 -1z m222 -137 c53 -25 98 -75 132 -148 23 -49 26 -67 26
-170 0 -103 -3 -121 -26 -171 -85 -180 -284 -231 -423 -108 -145 128 -154 399
-17 542 44 48 80 67 140 76 61 10 117 2 168 -21z"/>
<path d="M6571 1419 c-52 -17 -75 -32 -123 -80 -33 -32 -61 -59 -64 -59 -2 0
-4 32 -4 70 l0 70 -74 0 -74 0 2 -450 1 -450 83 0 82 0 0 285 c0 261 2 289 20
338 40 106 121 162 225 155 77 -5 121 -35 156 -105 24 -47 24 -54 27 -360 l3
-312 79 -3 78 -3 4 305 c3 265 6 310 21 345 37 84 112 135 197 135 64 0 109
-18 143 -59 51 -61 57 -107 57 -428 l0 -293 86 0 85 0 -3 328 c-3 311 -5 330
-26 383 -47 117 -115 178 -225 201 -67 14 -154 1 -223 -33 -44 -23 -134 -108
-134 -129 0 -21 -18 -9 -30 20 -7 17 -35 51 -62 75 -83 75 -184 92 -307 54z"/>
<path d="M1118 1411 c-67 -22 -111 -50 -159 -103 l-36 -40 -6 67 c-4 36 -9 70
-12 75 -4 6 -38 10 -77 10 l-71 0 6 -127 c4 -71 7 -275 7 -455 l0 -328 85 0
84 0 3 308 3 309 30 49 c45 72 109 108 199 112 96 5 146 -21 190 -98 l31 -55
3 -312 3 -313 85 0 84 0 0 313 c0 345 -4 379 -62 469 -73 116 -240 167 -390
119z"/>
<path d="M2745 1416 c-72 -18 -131 -51 -190 -107 -96 -91 -139 -204 -139 -364
2 -246 123 -395 359 -441 75 -15 102 -16 193 -6 59 6 134 19 167 30 65 20 64
17 44 95 -9 34 -13 38 -32 33 -153 -45 -306 -47 -397 -5 -98 45 -154 122 -167
229 l-6 50 338 0 337 0 -4 98 c-6 110 -24 173 -74 248 -83 124 -259 182 -429
140z m237 -141 c48 -34 92 -112 102 -182 l6 -43 -256 0 -256 0 7 33 c19 86 77
166 147 202 46 23 63 26 130 23 66 -3 82 -7 120 -33z"/>
<path d="M3807 1416 c-62 -23 -115 -66 -151 -123 l-33 -53 -7 90 -8 91 -71 -3
-72 -3 1 -37 c0 -21 1 -225 2 -453 l2 -415 85 0 85 0 0 262 c0 299 8 349 67
418 48 56 103 82 175 83 l58 0 0 79 0 78 -47 0 c-27 -1 -65 -7 -86 -14z"/>
<path d="M2510 255 c0 -3 13 -31 29 -63 29 -58 30 -82 5 -82 -8 0 -14 -5 -14
-11 0 -6 8 -9 17 -7 18 3 99 156 88 166 -7 7 -9 5 -37 -51 l-24 -48 -24 50
c-13 28 -27 51 -32 51 -4 0 -8 -2 -8 -5z"/>
<path d="M3400 255 c0 -3 13 -31 29 -63 29 -58 30 -82 5 -82 -8 0 -14 -5 -14
-11 0 -6 8 -9 17 -7 18 3 99 156 88 166 -7 7 -9 5 -37 -51 l-24 -48 -24 50
c-13 28 -27 51 -32 51 -4 0 -8 -2 -8 -5z"/>
<path d="M2660 155 c0 -37 4 -65 10 -65 6 0 10 14 10 30 0 28 3 30 35 30 32 0
35 -2 35 -30 0 -16 5 -30 10 -30 6 0 10 28 10 65 0 37 -4 65 -10 65 -5 0 -10
-11 -10 -25 0 -22 -4 -25 -35 -25 -31 0 -35 3 -35 25 0 14 -4 25 -10 25 -6 0
-10 -28 -10 -65z"/>
<path d="M2800 155 l0 -65 80 0 80 0 0 65 c0 37 -4 65 -10 65 -5 0 -10 -25
-10 -55 0 -52 -1 -55 -25 -55 -24 0 -25 3 -25 55 0 30 -4 55 -10 55 -5 0 -10
-25 -10 -55 0 -52 -1 -55 -25 -55 -24 0 -25 3 -25 55 0 30 -4 55 -10 55 -6 0
-10 -28 -10 -65z"/>
<path d="M2980 210 c0 -5 7 -10 15 -10 12 0 15 -13 15 -56 l0 -55 41 3 c73 5
81 69 10 76 -25 3 -31 8 -31 28 0 19 -5 24 -25 24 -14 0 -25 -4 -25 -10z m105
-80 c0 -9 -11 -16 -27 -18 -23 -3 -28 1 -28 18 0 17 5 21 28 18 16 -2 27 -9
27 -18z"/>
<path d="M3142 208 c-18 -18 -14 -49 7 -55 20 -5 20 -5 0 -26 -10 -11 -19 -24
-19 -29 0 -16 18 -7 34 17 9 14 23 25 31 25 9 0 15 -10 15 -25 0 -14 5 -25 10
-25 6 0 10 28 10 65 l0 65 -38 0 c-21 0 -43 -5 -50 -12z m68 -28 c0 -15 -7
-20 -24 -20 -27 0 -41 14 -31 30 3 6 17 10 31 10 17 0 24 -5 24 -20z"/>
<path d="M3560 130 c0 -53 4 -90 10 -90 6 0 10 17 10 37 0 29 3 34 12 25 30
-30 78 6 78 59 0 45 -50 75 -78 47 -9 -9 -12 -9 -12 0 0 7 -4 12 -10 12 -6 0
-10 -37 -10 -90z m78 58 c30 -30 -2 -93 -36 -71 -21 13 -27 50 -12 69 15 17
32 18 48 2z"/>
<path d="M3704 206 c-24 -18 -13 -31 14 -15 20 13 52 7 52 -10 0 -5 -13 -12
-29 -16 -72 -16 -64 -70 10 -71 l44 0 -4 50 c-1 28 -8 57 -13 64 -14 16 -50
15 -74 -2z m66 -70 c0 -16 -34 -31 -50 -21 -15 10 -12 23 8 28 32 9 42 7 42
-7z"/>
<path d="M3830 155 c0 -37 4 -65 10 -65 6 0 10 25 10 55 0 52 1 55 25 55 14 0
25 5 25 10 0 6 -16 10 -35 10 l-35 0 0 -65z"/>
<path d="M3920 155 l0 -65 80 0 80 0 0 65 c0 37 -4 65 -10 65 -5 0 -10 -25
-10 -55 0 -52 -1 -55 -25 -55 -24 0 -25 3 -25 55 0 30 -4 55 -10 55 -5 0 -10
-25 -10 -55 0 -52 -1 -55 -25 -55 -24 0 -25 3 -25 55 0 30 -4 55 -10 55 -6 0
-10 -28 -10 -65z"/>
<path d="M4110 155 c0 -80 14 -84 52 -17 l27 47 1 -47 c0 -27 5 -48 10 -48 6
0 10 28 10 65 0 80 -14 84 -52 17 l-27 -47 -1 48 c0 26 -4 47 -10 47 -6 0 -10
-28 -10 -65z"/>
<path d="M4240 166 c0 -34 -5 -56 -12 -59 -7 -2 -10 -8 -6 -12 4 -4 14 -5 23
-2 11 5 15 21 15 57 0 49 1 50 30 50 30 0 30 -1 30 -55 0 -30 5 -55 10 -55 6
0 10 28 10 65 l0 65 -50 0 -50 0 0 -54z"/>
<path d="M4370 210 c0 -5 7 -10 15 -10 12 0 15 -13 15 -56 l0 -55 41 3 c73 5
81 69 10 76 -25 3 -31 8 -31 28 0 19 -5 24 -25 24 -14 0 -25 -4 -25 -10z m105
-80 c0 -9 -11 -16 -27 -18 -23 -3 -28 1 -28 18 0 17 5 21 28 18 16 -2 27 -9
27 -18z"/>
<path d="M4532 208 c-18 -18 -14 -49 7 -55 20 -5 20 -5 0 -26 -10 -11 -19 -24
-19 -29 0 -16 18 -7 34 17 9 14 23 25 31 25 9 0 15 -10 15 -25 0 -14 5 -25 10
-25 6 0 10 28 10 65 l0 65 -38 0 c-21 0 -43 -5 -50 -12z m68 -28 c0 -15 -7
-20 -24 -20 -27 0 -41 14 -31 30 3 6 17 10 31 10 17 0 24 -5 24 -20z"/>
<path d="M3270 100 c0 -5 5 -10 10 -10 6 0 10 5 10 10 0 6 -4 10 -10 10 -5 0
-10 -4 -10 -10z"/>
<path d="M4660 100 c0 -5 5 -10 10 -10 6 0 10 5 10 10 0 6 -4 10 -10 10 -5 0
-10 -4 -10 -10z"/>
</g>
</svg>
