<?xml version="1.0" standalone="no"?>
<!DOCTYPE svg PUBLIC "-//W3C//DTD SVG 20010904//EN"
 "http://www.w3.org/TR/2001/REC-SVG-20010904/DTD/svg10.dtd">
<svg version="1.0" xmlns="http://www.w3.org/2000/svg"
 width="512.000000pt" height="512.000000pt" viewBox="0 0 512.000000 512.000000"
 preserveAspectRatio="xMidYMid meet">

<g transform="translate(0.000000,512.000000) scale(0.100000,-0.100000)"
fill="#000000" stroke="none">
<path d="M2078 5109 c-215 -31 -408 -195 -468 -396 l-13 -43 -504 0 -503 0 0
-125 0 -125 1970 0 1970 0 0 125 0 125 -504 0 -503 0 -13 46 c-56 197 -254
362 -476 394 -83 12 -875 11 -956 -1z m957 -305 c48 -17 145 -98 145 -122 0
-9 -149 -12 -620 -12 -471 0 -620 3 -620 12 0 22 97 105 141 121 68 24 884 24
954 1z"/>
<path d="M750 4130 l0 -199 43 -49 c24 -26 54 -66 67 -88 l25 -39 5 -1725 5
-1725 29 -63 c32 -69 118 -157 188 -193 96 -49 86 -49 1448 -49 1366 0 1352 0
1450 50 52 26 134 102 165 150 53 85 50 -25 55 1830 l5 1725 32 50 c18 28 48
66 67 84 l36 35 0 203 0 203 -1810 0 -1810 0 0 -200z m1200 -1945 l0 -1285
-162 2 -163 3 -3 1283 -2 1282 165 0 165 0 0 -1285z m780 0 l0 -1285 -162 2
-163 3 -3 1283 -2 1282 165 0 165 0 0 -1285z m868 3 l-3 -1283 -162 -3 -163
-2 0 1285 0 1285 165 0 165 0 -2 -1282z"/>
</g>
</svg>
